<svg xmlns="http://www.w3.org/2000/svg" width="165.03" height="157.725" viewBox="0 0 165.03 157.725">
  <g id="Grupo_5" data-name="Grupo 5" transform="translate(-279.745 -692.57)">
    <g id="Grupo_4" data-name="Grupo 4" transform="translate(279.745 692.57)">
      <path id="Trazado_1" data-name="Trazado 1" d="M354.214,713.5a15.984,15.984,0,0,0-1.2,1.207,4.94,4.94,0,0,0-.886,1.375.494.494,0,0,0,.019.394.778.778,0,0,0,.26.288.671.671,0,0,0,.334.114.272.272,0,0,0,.258-.158,2.27,2.27,0,0,1,.85-1.192c.432-.312.842-.593,1.245-.835.554-.334,1.116-.661,1.671-1s1.095-.668,1.616-1.024a9.188,9.188,0,0,0,2.179-2.195,1.165,1.165,0,0,0,.182-.546.56.56,0,0,0-.255-.487,3.326,3.326,0,0,0-.6-.2c-.286-.084-.492-.054-.606.1a24.889,24.889,0,0,1-2.537,2.081A24.666,24.666,0,0,0,354.214,713.5Z" transform="translate(-237.612 -682.888)" fill="#a12054"/>
      <path id="Trazado_2" data-name="Trazado 2" d="M337.356,760.939q.114-1.322.3-2.6c.122-.851.236-1.715.356-2.6.13-.35.244-.706.347-1.07s.2-.714.277-1.063c.335-1.161.661-2.323.972-3.476s.592-2.309.835-3.472c.082-.54.18-1.071.31-1.611a4.02,4.02,0,0,0,.046-1.6.75.75,0,0,0-.2-.47.71.71,0,0,0-.258-.184c-.134-.06-.2-.112-.2-.144l-.125.008a.145.145,0,0,1-.1-.03.123.123,0,0,0-.093-.014.826.826,0,0,1-.267-.046.874.874,0,0,0-.872.41,4.562,4.562,0,0,0-.41.782,10.408,10.408,0,0,0-.5,1.677c-.128.584-.25,1.161-.373,1.734-.241,1.16-.462,2.321-.641,3.469s-.375,2.309-.579,3.469c-.077.729-.153,1.435-.236,2.127s-.152,1.405-.231,2.125a.714.714,0,0,0-.331-.112,1.659,1.659,0,0,1-.326-.07,3.82,3.82,0,0,0-1.915.144,6.069,6.069,0,0,0-1.654.843,8.141,8.141,0,0,0-2.217,2.171,23.806,23.806,0,0,0-1.5,2.491,20.309,20.309,0,0,0-1.131,3.1,10.919,10.919,0,0,0-.418,3.144,9.227,9.227,0,0,0,.147,1.571,1.994,1.994,0,0,0,.862,1.336,2.044,2.044,0,0,0,1.177.388,2.965,2.965,0,0,0,1.233-.228,3.807,3.807,0,0,0,1.454-1.191c.358-.51.691-.987.986-1.429a16.631,16.631,0,0,0,.927-1.661c.272-.57.54-1.123.8-1.663.293-.63.57-1.269.821-1.921s.5-1.3.758-1.957c.008.622,0,1.236-.016,1.835s.008,1.193.054,1.793c.009.721.046,1.457.095,2.217a9.742,9.742,0,0,0,.413,2.209,3.971,3.971,0,0,0,.44.956,1.727,1.727,0,0,0,.949.721,2.158,2.158,0,0,0,1.367.008,4.628,4.628,0,0,0,1.229-.562,3.107,3.107,0,0,0,.84-.76c.165-.228.337-.448.5-.668a7.044,7.044,0,0,0,1.022,1.063,6.079,6.079,0,0,0,2.279,1.122,7.056,7.056,0,0,0,2.711.228,7.693,7.693,0,0,0,2.522-.66,3.916,3.916,0,0,0,.415-.242c.122-.092.252-.184.373-.274.06-.062.152-.144.258-.244s.133-.19.07-.266c-.065-.06-.16-.06-.282,0a1.354,1.354,0,0,0-.237.144c-.188.092-.367.192-.536.283s-.373.188-.585.28a9.837,9.837,0,0,1-1.783.464,5.271,5.271,0,0,1-2.1-.115,3.89,3.89,0,0,1-1.494-.766,3.173,3.173,0,0,1-1.079-1.457,4.861,4.861,0,0,1-.272-1.557,4.072,4.072,0,0,1,.234-1.647,2.713,2.713,0,0,1,1.421-1.449l.1-.048a2.027,2.027,0,0,0,.517.176,4.653,4.653,0,0,0,1.23.228,3.111,3.111,0,0,0,1.272-.144c.437-.168.587-.364.467-.578a.688.688,0,0,0-.383-.28,4.286,4.286,0,0,0-.665-.168c-.375-.038-.745-.06-1.109-.076a5.179,5.179,0,0,0-1.155.106.3.3,0,0,1-.138.024,2.238,2.238,0,0,1-.525-.546,3,3,0,0,1-.293-.57,7.226,7.226,0,0,1-.3-1.041,3.87,3.87,0,0,1-.052-1.047c.024-.486.052-.972.1-1.442a3.181,3.181,0,0,1,.476-1.413,4.371,4.371,0,0,1,.554-.736,3.67,3.67,0,0,1,.843-.654,5.449,5.449,0,0,1,1.127-.456,3.326,3.326,0,0,1,1.367-.084,1.646,1.646,0,0,1,1.066.471,3.146,3.146,0,0,1,.456.684,2.563,2.563,0,0,1,.317.834c.049.282.089.57.128.859v.068a7.871,7.871,0,0,0-1.826,1.237,3.879,3.879,0,0,0-1.063,1.465,2.508,2.508,0,0,0-.09.7c.006.252.2.464.576.631a1.9,1.9,0,0,0,.661.136,2.3,2.3,0,0,0,.636-.076,2.418,2.418,0,0,0,.563-.228,3.814,3.814,0,0,0,.44-.274,2.928,2.928,0,0,0,.654-.744c.155-.266.312-.524.462-.79a7.207,7.207,0,0,0,.366-1.093,4.8,4.8,0,0,0,.128-1.116c.375-.128.812-.258,1.313-.388.25-.044.486-.092.706-.144a5.381,5.381,0,0,0,.661-.19c.06-.014.144-.044.256-.084s.1-.076-.025-.106a2.841,2.841,0,0,0-1.057.038c-.427.084-.761.144-1.011.2a2.111,2.111,0,0,0-.426.12,2.7,2.7,0,0,1-.426.115c-.03-.122-.052-.228-.076-.335a1.053,1.053,0,0,0-.12-.326,3.49,3.49,0,0,0-.407-.706,3.1,3.1,0,0,0-.717-.684,3.949,3.949,0,0,0-1.09-.524,4.275,4.275,0,0,0-1.438-.2,6.554,6.554,0,0,0-1.555.188,7.434,7.434,0,0,0-1.291.464,8.646,8.646,0,0,0-1.078.623,5.386,5.386,0,0,0-.813.668,3.923,3.923,0,0,0-1.066,1.587,6.128,6.128,0,0,0-.315,1.661,3.671,3.671,0,0,0,.426,1.617,4.437,4.437,0,0,0,1.266,1.489,5.459,5.459,0,0,0,.525.41,5.206,5.206,0,0,0-1.641.858,3.542,3.542,0,0,0-.934,1.056,2.8,2.8,0,0,0-.38,1.655,3.343,3.343,0,0,0,.38,1.252l-.666.639c-.176.158-.35.3-.519.432s-.37.258-.584.388a3.121,3.121,0,0,1-.554.19c-.147.038-.334.082-.546.15-.046,0-.068-.014-.068-.044-.046-.03-.07-.062-.07-.092a1.736,1.736,0,0,1-.264-.516,4.6,4.6,0,0,1-.206-.661c-.046-.22-.09-.44-.138-.66a20.935,20.935,0,0,1-.222-2.778c.025-1.07.078-2.133.154-3.2S337.234,762.008,337.356,760.939Zm-3.606,3.151c-.426,1.108-.866,2.225-1.329,3.34a15.941,15.941,0,0,1-1.783,3.2,4.334,4.334,0,0,0-.388.524,4.037,4.037,0,0,1-.608.712,2.56,2.56,0,0,1-.744.509.636.636,0,0,1-.72-.114.827.827,0,0,1-.366-.606c-.024-.252-.038-.487-.038-.707a6.031,6.031,0,0,1,.052-.9,6.534,6.534,0,0,1,.184-.85,20.278,20.278,0,0,1,1.169-3.242,26.642,26.642,0,0,1,1.685-3.112c.3-.442.622-.9.964-1.351a8.356,8.356,0,0,1,1.222-1.313,7.539,7.539,0,0,1,.646-.434c.212-.128.448-.258.71-.386a2.278,2.278,0,0,1,1.041-.154Q334.757,761.583,333.75,764.089Zm12.686,1.5c.09.014.236.038.421.076s.223.084.095.152a1.273,1.273,0,0,1-.606.106,2.234,2.234,0,0,1-.616-.076c-.13-.022-.244-.06-.358-.09l-.3-.108A5.032,5.032,0,0,1,346.435,765.584Zm3.128-4.32c-.016.19-.035.38-.06.562-.06.266-.138.532-.229.812a2.2,2.2,0,0,1-.508.805,3.158,3.158,0,0,1-.3.3.645.645,0,0,1-.538.144c-.255-.03-.4-.106-.456-.242a1.239,1.239,0,0,1-.073-.35,2.034,2.034,0,0,1,.274-.8,3.85,3.85,0,0,1,.6-.774c.191-.184.388-.366.608-.54s.448-.328.7-.486C349.581,760.885,349.579,761.075,349.564,761.265Z" transform="translate(-252.692 -663.454)" fill="#a12054"/>
      <path id="Trazado_3" data-name="Trazado 3" d="M292.256,728.233a33.16,33.16,0,0,0,3.964-3.522,2.035,2.035,0,0,0,.03.212q1.227,7.961,2.405,15.692t2.935,15.556c-1.34.568-2.386,1.062-3.147,1.472a6.3,6.3,0,0,0-3.218,3.95c-.424,1.647.305,2.937,2.171,3.856a11.589,11.589,0,0,0,6.568.82q.786,2.858,1.54,5.647a48.561,48.561,0,0,0,1.888,5.552q1.711,4.908,4.041,10.029a25.115,25.115,0,0,0,6.7,8.844,15.013,15.013,0,0,0,4.431,2.56c-2.848-1.549-5.7-7.548-8.072-14.053q-.536-1.163-.979-2.369a95.84,95.84,0,0,1-3.12-10.434c-.286-1.048-.584-2.147-.894-3.287a33.682,33.682,0,0,1-.761-3.478,25.2,25.2,0,0,0,9.665-4.942,25.831,25.831,0,0,1,7.622,3.992,28.364,28.364,0,0,1,5.709,5.893,24.975,24.975,0,0,1,3.888,8.763,18.515,18.515,0,0,1-.334,9.763,10.414,10.414,0,0,1-2.56,4.312,9.959,9.959,0,0,1-3.8,2.437c-.334.12-.676.242-1.04.342,0,0-2.544.492-1.511,2.3a2.847,2.847,0,0,0,3.089,1.282l1.359-.234a16.917,16.917,0,0,0,3.1-1.079,18.632,18.632,0,0,0,4.9-3.256,17.214,17.214,0,0,0,5.247-8.488,19.377,19.377,0,0,0,.182-9.261,23.146,23.146,0,0,0-4.1-9.249,28.4,28.4,0,0,0-7.66-7.2,34.713,34.713,0,0,0-9.961-4.351,38.483,38.483,0,0,0,4.711-7.037,58.31,58.31,0,0,0,3.26-7.57,48.326,48.326,0,0,0,2.446-20.474,43.829,43.829,0,0,0-2.429-10.621,22.964,22.964,0,0,0-6.13-9.156c-.21-.206-.432-.4-.65-.593,8.466-5.117,17.879-8.594,26.684-7.03,10.469,1.853,17.363,6.3,21.327,11.184-11.314,8.874-9.111,22.153-.547,20.354,6.695-1.411,8.29-11.282,3.086-19.83a.014.014,0,0,1,.013-.008c12.19-10.546,22.093-3.386,24.779,2.559-1.291,3.136-2.331,6.7-.372,6.589,1.745-.1,2.071-3.363.706-6.87a36.623,36.623,0,0,1,1.807-4.334s-.979,1.859-1.913,4.062c-2.369-5.733-9.247-11.928-21.858-6a30.433,30.433,0,0,0-4.22,2.4c-4.2-5.763-11.681-10.606-23.018-11.29-9.741-.584-19.07,2.839-27.164,7.638a21.133,21.133,0,0,0-7.587-3.842,23.772,23.772,0,0,0-11.209-.4,34.624,34.624,0,0,0-6.173,1.685,27.593,27.593,0,0,0-5.644,2.915A24.692,24.692,0,0,0,287.8,704.2q-1.913,1.9-3.737,4.084a22.888,22.888,0,0,0-3.573,7.03c-.068.228-.13.448-.19.668-.128.494-.244.987-.342,1.489,0,.06,0,.128,0,.2C278.71,725.788,283.033,735.187,292.256,728.233Zm107.409-16.277c-1.063,3.8-2.127,1.739-.456-3.56A5.649,5.649,0,0,1,399.665,711.955Zm-27.7,10.57c-3.226,1.244-10.119-5.315,1.017-15.83C377.551,713.534,376.65,720.724,371.97,722.525Zm-73.958-6.508c1.139-8.548,3.135-4.152,3.592.448.014.13.022.258.03.4.014.182.03.372.038.554.006.144.011.282.014.418-1.574,1.685-2.847,3.143-3.772,4.244A20.91,20.91,0,0,1,298.011,716.017Zm2.847,8.01c-.767,1.631-2.217,1.367-2.831-1.343a.043.043,0,0,0,0-.024c.915-1.009,2.161-2.345,3.679-3.894A15.807,15.807,0,0,1,300.858,724.027Zm.09,39.386a3.681,3.681,0,0,1-1.853-.652.958.958,0,0,1-.242-1.549,7.68,7.68,0,0,1,3.461-1.707,11.881,11.881,0,0,0,.37,2.049c.177.668.362,1.335.543,2A14.32,14.32,0,0,1,300.948,763.413Zm12.337-3.362c-.323.19-.706.394-1.138.614a14.442,14.442,0,0,1-3.978,1.853c-.154-.578-.29-1.177-.4-1.815s-.2-1.3-.258-2c1.116,0,2.252.054,3.4.146s2.3.242,3.475.44A12.326,12.326,0,0,1,313.286,760.05Zm6.916-52.019q.99,2.267,1.919,4.312a38.185,38.185,0,0,1,2.75,10.075,80.229,80.229,0,0,1,.661,10.652,51.157,51.157,0,0,1-1.353,10.111,33.182,33.182,0,0,1-4.19,9.975l-1.793,2.324c-1.168-.192-2.359-.328-3.559-.411s-2.5-.136-3.875-.166a11.147,11.147,0,0,0-1.942.068c-.668.076-1.3.144-1.905.206l-.4-4.192q-.546-4.759-1.051-9.687t-.884-9.741q-.318-3.9-.524-7.766-.195-3.392-.593-6.787a125.006,125.006,0,0,1,14.706-12.488A18.5,18.5,0,0,1,320.2,708.031Zm-31.644,2.027a29.85,29.85,0,0,1,4.739-5.649c.516-.416.843-.63.843-.63l-.153.022a17.239,17.239,0,0,1,2.446-1.707c.294-.2.6-.394.9-.576a20.115,20.115,0,0,1,5.541-2.279,18.915,18.915,0,0,1,6.025-.486,10.2,10.2,0,0,1,5.119,1.679,16.56,16.56,0,0,1,3.606,3.355,105.377,105.377,0,0,0-14.271,12.3v-.008c-.038-.51-.1-1.025-.165-1.541-.017-.122-.041-.244-.057-.364a33.659,33.659,0,0,0-.854-4.1c-.133-.472-.261-.949-.389-1.427a3.33,3.33,0,0,0-.737-1.337,4,4,0,0,0-.8-.546,1.26,1.26,0,0,0-.9-.22,1.155,1.155,0,0,0-.619.478,2.614,2.614,0,0,0-.369.714,9.774,9.774,0,0,0-1.514,3.332c-.293,1.207-.532,2.4-.706,3.568a33.324,33.324,0,0,0-.1,9.611c-4.522,4.852-9.064,6.643-10.021-.378A21.484,21.484,0,0,1,288.558,710.058Z" transform="translate(-279.745 -692.57)" fill="#a12054"/>
      <path id="Trazado_4" data-name="Trazado 4" d="M377.832,750.206c-.524.152-1.047.335-1.579.532a2.6,2.6,0,0,1-1.609.084,2.733,2.733,0,0,1-1.633-2.877,27.634,27.634,0,0,1,.266-3.53,30.925,30.925,0,0,1,.972-4.578c.434-1.481.889-2.968,1.377-4.48q1.6-4.488,2.859-9.353l1.427-4.388a6.344,6.344,0,0,0,.47-1.533,1.592,1.592,0,0,0-2.255-1.595,5.834,5.834,0,0,0-1.654,1.373,10.455,10.455,0,0,0-1.389,2.021c-.38.714-.66,1.244-.843,1.579a25.815,25.815,0,0,0-1.853,4.926q-.648,2.506-1.449,5.033a49.012,49.012,0,0,1-1.587,5c-.614,1.623-1.263,3.2-1.951,4.76s-1.449,3.081-2.277,4.6a19.067,19.067,0,0,1-3.018,4.122,9.373,9.373,0,0,1-1.446,1.139,2,2,0,0,1-1.913.152,2.647,2.647,0,0,1-1.329-1.571,14.889,14.889,0,0,1-.47-2.065,19.717,19.717,0,0,1,.226-5.065c.3-1.7.617-3.377.943-5.018a90.8,90.8,0,0,1,2.3-9.14q1.377-4.477,2.975-8.959c.364-1.062.737-2.095,1.093-3.112s.767-2.035,1.231-3.067a10.162,10.162,0,0,0,.536-1.519,5.012,5.012,0,0,0,.13-1.625,5.315,5.315,0,0,0-.356-1.388c-.182-.434-.562-.434-1.153-.016a8.3,8.3,0,0,0-2.149,2.187c-.623.9-1.18,1.761-1.685,2.589-.783,1.146-1.48,2.285-2.109,3.416a36.7,36.7,0,0,0-1.71,3.522,57.345,57.345,0,0,0-2.957,8.9,48.6,48.6,0,0,0-1.334,9.315,46.686,46.686,0,0,0-.127,4.942,21.151,21.151,0,0,0,.366,3.44l-.3.72a17.383,17.383,0,0,1-1.328,2.363,3.758,3.758,0,0,1-2.279,1.647,2.059,2.059,0,0,1-2.125-.593c-.566-.606-1.049-1.138-1.443-1.6a17.593,17.593,0,0,1-2.608-5.329q-.883-2.939-1.736-5.8a60.669,60.669,0,0,1-2.079-7.266l.258-2.2c.095-1.343.152-2.651.158-3.918a22.076,22.076,0,0,0-.294-3.742,7.531,7.531,0,0,0-.76-2.6,2.424,2.424,0,0,0-2.521-1.215,2.109,2.109,0,0,1-.486.1,2.919,2.919,0,0,0-.638.158,3.591,3.591,0,0,0-1.945,2.355,15.138,15.138,0,0,0-.334,4.881,41.488,41.488,0,0,0,.685,4.813,32.32,32.32,0,0,0,.7,4.128c.32,1.4.677,2.779,1.049,4.152-.163,1.475-.334,2.946-.5,4.413s-.41,2.915-.706,4.334c-.312,1.723-.691,3.416-1.131,5.094a24.986,24.986,0,0,1-1.9,4.905c-.354.63-.761,1.274-1.215,1.943a2.174,2.174,0,0,1-1.7,1.062,2.149,2.149,0,0,1-2.081-.69,11.431,11.431,0,0,1-1.184-1.609,17.331,17.331,0,0,1-1.625-4.783,46.267,46.267,0,0,1-.706-5.109,62.629,62.629,0,0,1,.095-9.929,61.519,61.519,0,0,1,1.674-9.891,33.566,33.566,0,0,1,1.427-4.511,18.333,18.333,0,0,1,2.385-4.258,9.559,9.559,0,0,1,2.907-2.551c1.071-.586,2.309-1.177,3.714-1.785a5.37,5.37,0,0,0,.742-.342c.3-.152.411-.318.342-.5a7.3,7.3,0,0,0-1.154-.8,4.739,4.739,0,0,0-2.027-.326,15.269,15.269,0,0,0-2,.258,11.2,11.2,0,0,0-4.372,2.1,13.452,13.452,0,0,0-3.188,3.486,24.253,24.253,0,0,0-3.848,9.383,73.105,73.105,0,0,0-1.117,9.763,69.137,69.137,0,0,0,.562,10.3A29.313,29.313,0,0,0,321.5,759.7a14,14,0,0,0,1.775,2.763,4.936,4.936,0,0,0,2.969,1.729,4.373,4.373,0,0,0,3.188-.31A8.212,8.212,0,0,0,332,761.83a19.647,19.647,0,0,0,3.6-7.182q1.078-4.009,1.826-7.752a.393.393,0,0,1,.059-.326,21.108,21.108,0,0,0,2.652,4.494,18.922,18.922,0,0,0,2.957,3.394,7.593,7.593,0,0,0,4.364,1.991,5.769,5.769,0,0,0,4.488-1.307,11.894,11.894,0,0,0,2.347-2.581,11.741,11.741,0,0,0,1.282,1.973,4.338,4.338,0,0,0,3.986,1.611,5.321,5.321,0,0,0,3.739-1.915,36.553,36.553,0,0,0,2.707-3.484,42.105,42.105,0,0,0,2.283-4.38q1.025-2.255,1.892-4.488c.014.676.021,1.305.014,1.883s.011,1.153.054,1.739a31.405,31.405,0,0,0,.462,3.226,6.732,6.732,0,0,0,1.275,2.855,3.636,3.636,0,0,0,2.362,1.473,5.72,5.72,0,0,0,2.807-.282,8.967,8.967,0,0,0,1.245-.494c.152-.866.32-1.715.508-2.567C378.537,749.9,378.166,750.07,377.832,750.206Z" transform="translate(-257.495 -682.225)" fill="#a12054"/>
      <path id="Trazado_5" data-name="Trazado 5" d="M383.96,808.657a5.006,5.006,0,0,1-1.511-.911l-1.255,2.269a13.988,13.988,0,0,1-.846,1.313,13.247,13.247,0,0,1-1.014,1.229,5.435,5.435,0,0,1-1.06.753c-.3.158-.668.372-1.084.638-.092.022-.154,0-.168-.084a.291.291,0,0,1-.2-.191,4.075,4.075,0,0,1-.865-1.136,10.225,10.225,0,0,1-.81-1.511c-.229-.517-.456-1.033-.68-1.557a59.539,59.539,0,0,1-2.1-6.711q-.838-3.964-1.533-7.964t-1.253-8.024q-.525-3.3-.88-6.529t-.744-6.56c.068-.918.106-1.843.112-2.794s.008-1.859-.024-2.747q.047-4.555.04-9.027t-.236-8.958q-.206-2.027-.28-4.1a11.548,11.548,0,0,0-.837-3.964,2.022,2.022,0,0,0-.7-1.048,1.416,1.416,0,0,0-.669-.326c-.31-.084-.478-.166-.5-.251l-.274.076a.29.29,0,0,1-.22-.008.323.323,0,0,0-.228-.006,1.5,1.5,0,0,1-.578.024,1.841,1.841,0,0,0-1.617,1.442,11.788,11.788,0,0,0-.429,2.127,29.386,29.386,0,0,0-.085,4.381c.076,1.5.144,2.961.21,4.418q.228,4.486.654,8.853t.79,8.82c.25,1.815.5,3.6.737,5.337s.476,3.522.731,5.337a1.4,1.4,0,0,0-.763-.122,2.815,2.815,0,0,1-.733,0,7.172,7.172,0,0,0-4,1.3,12.247,12.247,0,0,0-3.024,2.893,19.4,19.4,0,0,0-3.456,6.437,61.521,61.521,0,0,0-1.747,6.864q-.123.864-.218,1.73a4.418,4.418,0,0,0-.971.13c-.411.1-.668.168-.785.19-.9.16-1.832.288-2.8.372a18.337,18.337,0,0,1-3.106,0,1.354,1.354,0,0,1,.234-.372,1.635,1.635,0,0,0,.245-.364,25.418,25.418,0,0,0,2.832-7.524,20.247,20.247,0,0,0,.283-3.658,7.894,7.894,0,0,0-1.059-3.782,5.57,5.57,0,0,0-4.206-3.151,7.391,7.391,0,0,0-3-.424,10.739,10.739,0,0,0-2.6.454l-.785.365a19.452,19.452,0,0,0-4.954,3.688,28.678,28.678,0,0,0-3.66,4.616,35.194,35.194,0,0,0-1.867,3.38,32.407,32.407,0,0,0-1.438,3.454,36.152,36.152,0,0,0-1.112,3.772,15.556,15.556,0,0,0-.418,3.962,10.476,10.476,0,0,0,.926,3.372,7.421,7.421,0,0,0,2.541,2.885c.695.3,1.324.586,1.886.826a4.015,4.015,0,0,0,1.978.283,5.836,5.836,0,0,0,2.13-.252c.606-.212,1.229-.448,1.866-.722a16.827,16.827,0,0,0,5.369-3.924,33.363,33.363,0,0,0,3.894-5.155,13.293,13.293,0,0,0,4.608.122c.866-.092,1.9-.214,3.1-.35a5.5,5.5,0,0,0,.661-.128q-.18,2.186-.187,4.394a32.733,32.733,0,0,0,.935,7.92,29.589,29.589,0,0,0,1.233,3.8A5.189,5.189,0,0,0,355,821.4a4.155,4.155,0,0,0,2.726.364,5.766,5.766,0,0,0,2.5-1.169,8.513,8.513,0,0,0,2.393-3.658c.475-1.421.9-2.756,1.279-3.994a43.8,43.8,0,0,0,1-4.54c.258-1.533.5-3.021.729-4.472.261-1.7.478-3.408.636-5.124s.32-3.454.47-5.207q.572,2.312,1.046,4.524c.315,1.473.7,2.938,1.157,4.372.441,1.777.93,3.576,1.481,5.4a27.321,27.321,0,0,0,2.173,5.231,11.247,11.247,0,0,0,1.479,2.149,3.93,3.93,0,0,0,2.445,1.29,4.061,4.061,0,0,0,2.915-.66,9.9,9.9,0,0,0,2.293-1.973,7.565,7.565,0,0,0,1.34-2.294c.285-.805.573-1.617.87-2.421A2.048,2.048,0,0,1,383.96,808.657Zm-45.416-5.331a10.257,10.257,0,0,1-.976,1.171,31.72,31.72,0,0,1-2.681,2.733,15.975,15.975,0,0,1-3.234,2.247c-.408.22-.864.433-1.37.646a4.687,4.687,0,0,1-1.628.35,5.2,5.2,0,0,1-1.631-.184,2.193,2.193,0,0,1-1.275-1.154,4.658,4.658,0,0,1-.479-3.88,30.339,30.339,0,0,1,1.223-3.484,36.713,36.713,0,0,1,1.807-3.59q.978-1.709,2.027-3.37.558-.947,1.109-1.823a16.223,16.223,0,0,1,1.237-1.769,10.491,10.491,0,0,0,.622,5.663,9.253,9.253,0,0,0,4.8,4.647,2.361,2.361,0,0,0,1.3.57Q338.956,802.734,338.543,803.326Zm1.848-2.8a7.545,7.545,0,0,1-3.752-2.239,7.006,7.006,0,0,1-1.609-3.25,9.751,9.751,0,0,1,.008-3.552,9.832,9.832,0,0,1,3.158-5.777l.043-.1.611-.328a11.2,11.2,0,0,1,1.169-.546,11.367,11.367,0,0,1,1.435-.44l.652-.07a3,3,0,0,1,1,1.087,9.574,9.574,0,0,1,.608,1.274,6.08,6.08,0,0,1,.343,3.82,15.243,15.243,0,0,1-1.135,5.245A30.181,30.181,0,0,1,340.392,800.525Zm23.349-4.222q-.382,4.4-.886,8.867a42.486,42.486,0,0,1-1.934,8.753,14.159,14.159,0,0,0-.519,1.481,10.053,10.053,0,0,1-.88,2.057,5.733,5.733,0,0,1-1.283,1.6,1.253,1.253,0,0,1-1.593.092,2.166,2.166,0,0,1-1.131-1.313c-.2-.607-.364-1.176-.5-1.717a18.294,18.294,0,0,1-.407-2.231,16.077,16.077,0,0,1-.1-2.185,55.017,55.017,0,0,1,.6-8.549,69.736,69.736,0,0,1,1.788-8.473c.37-1.236.793-2.5,1.252-3.8a20.251,20.251,0,0,1,1.837-3.826,15.11,15.11,0,0,1,1.124-1.381c.38-.426.812-.858,1.29-1.307a4.314,4.314,0,0,1,2.124-.888Q364.437,789.643,363.741,796.3Z" transform="translate(-255.462 -664.68)" fill="#a12054"/>
      <g id="Grupo_2" data-name="Grupo 2" transform="translate(118.711 9.517)">
        <path id="Trazado_6" data-name="Trazado 6" d="M367.189,775.978c1.321-.524,2.6-1.1,3.858-1.717s2.543-1.192,3.864-1.723c.136-.038.454-.152.959-.335s.71-.07.634.32a2.105,2.105,0,0,1-.934,1.489c-.584.47-1.082.872-1.487,1.207a23.147,23.147,0,0,1-3.329,2.073,19.634,19.634,0,0,1-4.044,1.547,12.6,12.6,0,0,1-4.241.388,8.036,8.036,0,0,1-3.948-1.427,8.662,8.662,0,0,1-2.8-3.53,11.828,11.828,0,0,1-.948-4.389,20.7,20.7,0,0,1,.358-4.548c.28-1.5.56-2.87.853-4.138a55.89,55.89,0,0,1,2.889-9.391c1.229-3.013,2.543-6.027,3.938-9.019q2.347-5.011,4.951-9.815t5.516-9.529q2.908-4.726,6.144-9.216a71.943,71.943,0,0,1,7.2-8.511q1.811-1.854,3.774-3.643a15.352,15.352,0,0,1,4.418-2.824,5.656,5.656,0,0,1,4.032-.494q2.122.5,2.195,3.15a11.351,11.351,0,0,1-.692,4.866c-.6,1.655-1.184,3.264-1.739,4.829q-.9,2.483-2.011,4.858a36.936,36.936,0,0,1-2.635,4.7,122.361,122.361,0,0,1-11,16.224,129.872,129.872,0,0,1-13.407,14.357,67.185,67.185,0,0,1-7.7,6.552l-.818.56a34.787,34.787,0,0,0-2.288,7.326,26.785,26.785,0,0,0-.578,4.275,6.222,6.222,0,0,0,1.222,4.215,4.111,4.111,0,0,0,3.584,1.965A12.512,12.512,0,0,0,367.189,775.978Zm-4.2-21.692.88-.7a153.36,153.36,0,0,0,12.413-12.9q5.791-6.776,10.992-13.939,3.133-4.453,5.907-9.087a43.8,43.8,0,0,0,4.366-9.869c.206-.873.443-1.753.722-2.649a6.4,6.4,0,0,0,.234-2.734c-.008-.22-.016-.5-.024-.826s-.2-.479-.56-.449a1.768,1.768,0,0,0-1,.4,5.65,5.65,0,0,1-.918.592,18.282,18.282,0,0,0-3.88,3.674c-1.139,1.443-2.166,2.847-3.1,4.23q-6.47,8.962-12.048,18.463t-10.646,19.168Z" transform="translate(-354.768 -698.584)" fill="#a12054"/>
      </g>
      <g id="Grupo_3" data-name="Grupo 3" transform="translate(10.597 97.983)">
        <path id="Trazado_7" data-name="Trazado 7" d="M337.567,811.782a22.239,22.239,0,0,0,5.747-.728c1.777-.486,3.546-.971,5.325-1.451a18.677,18.677,0,0,0,1.978-.66,6.926,6.926,0,0,1,2.135-.456c.72.039.864.274.424.714a2.949,2.949,0,0,1-.9.722,13.077,13.077,0,0,1-3.652,2.066,43.066,43.066,0,0,1-4.318,1.41,24.543,24.543,0,0,1-5.671.829,14.458,14.458,0,0,1-6.114-1.193,7.9,7.9,0,0,1-4.37-3.674,12.192,12.192,0,0,1-1.2-4.669,23.888,23.888,0,0,1,1.758-9.056q1.775-4.419,3.728-8.412.624-1.241,2.071-3.668t2.954-5.048a33.75,33.75,0,0,0,2.467-5.209,6.923,6.923,0,0,0,.555-4.014,1.573,1.573,0,0,0-1.709-1.139,11.274,11.274,0,0,0-3.092.44,23.318,23.318,0,0,0-3.347,1.222c-1.109.51-1.921.873-2.429,1.093a52.922,52.922,0,0,0-7.959,5.657,18.055,18.055,0,0,1-.924,3.173c-.41,1.025-.785,2.066-1.131,3.106a27.4,27.4,0,0,1-1.905,4.448q-1.173,2.222-2.565,4.38c-.7,1.215-1.481,2.461-2.347,3.72a17.1,17.1,0,0,1-3.173,3.456,5.96,5.96,0,0,1-1.975,1.16,3.827,3.827,0,0,1-2.7.062,2.361,2.361,0,0,1-1.723-1.139,5.388,5.388,0,0,1-.625-1.8,8.459,8.459,0,0,1,1.272-4.22q1.218-2.063,2.459-3.826c1.1-1.573,2.255-3.084,3.462-4.518s2.5-2.9,3.875-4.388l1.688-7.266.631-5.3c.052-1.525-.318-2.3-1.116-2.315a6.244,6.244,0,0,0-2.923.85,20.931,20.931,0,0,0-3.356,2.165,16.165,16.165,0,0,0-2,1.737q-2.174,1.9-4.006,3.836t-3.614,3.962q-1.564,2.093-3.006,4.16c-.972,1.373-1.891,2.734-2.771,4.084a3.175,3.175,0,0,0-.783,1.047c-.334.57-.62,1.109-.858,1.609a13.755,13.755,0,0,0-.609,1.535,10.735,10.735,0,0,1-.46,1.084c-.228.457-.494.927-.793,1.405a3.031,3.031,0,0,1-1.128,1.079,1.815,1.815,0,0,1-1.465.106c-.766-.35-1.066-.782-.9-1.305s.312-.965.429-1.315a8.431,8.431,0,0,1,1.127-2.1l.339-1.047q1.645-4.384,2.949-9.026l4.26-16.377,1.206-4.546a12.152,12.152,0,0,1,.4-1.869c.187-.326-.3-.668.029-.994a3.869,3.869,0,0,1,1.016-.752.8.8,0,0,1,.881,0,3.619,3.619,0,0,1,1.769,2.019,7.986,7.986,0,0,1,.424,2.749,13.313,13.313,0,0,1-.334,2.718c-.2.85-.394,1.533-.562,2.057q-.491,2.162-1.047,4.22c-.38,1.375-.38,1.837-.834,3.228l-1.209,4.548c1-1.223,1.307-1.573,2.271-2.7s1.994-2.248,3.09-3.334q1.728-1.9,3.787-3.764A29.188,29.188,0,0,1,311.019,763a13.532,13.532,0,0,1,2.369-1.109,5.873,5.873,0,0,1,2.953-.2,6.455,6.455,0,0,1,3.69,1.639,7.339,7.339,0,0,1,1.9,3.013,10.843,10.843,0,0,1,.543,3.432c-.008,1.155.016,2.127.054,2.916a23.527,23.527,0,0,1,3.522-2.764,31.139,31.139,0,0,1,3.987-2.171,26.794,26.794,0,0,1,4.855-1.813,9.74,9.74,0,0,1,5.73.2A5.677,5.677,0,0,1,344,768.19a6.069,6.069,0,0,1,1.087,3.03,12.146,12.146,0,0,1-.547,5.041q-.814,2.483-1.737,4.638a82.611,82.611,0,0,1-4.211,8.548q-2.317,4.1-4.562,8.284c-.718,1.313-1.37,2.65-1.961,4a11.839,11.839,0,0,0-.97,4.313,16.24,16.24,0,0,0,.245,2.255,3.48,3.48,0,0,0,1.405,2.049,5.425,5.425,0,0,0,2.3,1.047A16.393,16.393,0,0,0,337.567,811.782ZM309.59,792.8a13.668,13.668,0,0,0,1.443-3.076c.358-1.093.722-2.2,1.095-3.34a38.064,38.064,0,0,0-3.22,4.456,22.352,22.352,0,0,0-2.225,4.777,8.8,8.8,0,0,0-.3,1.275c-.092.5.172.47.8-.1a13.082,13.082,0,0,0,1.3-1.959C308.857,794.124,309.227,793.457,309.59,792.8Z" transform="translate(-286.443 -754.493)" fill="#a12054"/>
      </g>
      <path id="Trazado_8" data-name="Trazado 8" d="M300.216,750.342s-.725-4.04-3.364-3.044c-2.715,1.025-2.166,3.986-2.309,9.307-.1,3.508-2.054,12.3-3.919,19.936a4.8,4.8,0,0,0,3.815,2.149l.859.03C298.077,769.4,301.493,756.013,300.216,750.342Z" transform="translate(-273.41 -660.792)" fill="#a12054"/>
      <path id="Trazado_9" data-name="Trazado 9" d="M397.711,774.948c-.206-.342-.875.386-3.19,1.541a4.2,4.2,0,0,1-1.305.372c-.234-3.826-1.533-7.28-5.025-8.723-6.582-2.733-4.487,9.4,2.855,9.557a49.954,49.954,0,0,1-1.777,10.606l-1.2,3.1a16.511,16.511,0,0,1-1.192,2.286,2.911,2.911,0,0,1-2.032,1.442,1.845,1.845,0,0,1-1.873-.866c-.491-.684-.916-1.29-1.259-1.813a22.1,22.1,0,0,1-2.261-5.809c-.508-2.087-1-4.152-1.484-6.195a75.584,75.584,0,0,1-1.78-7.736l.244-2.248c.1-1.373.158-2.717.174-4.022a25.839,25.839,0,0,0-.226-3.9,9.4,9.4,0,0,0-.655-2.771,2.373,2.373,0,0,0-2.215-1.541,1.877,1.877,0,0,1-.432.044,2.249,2.249,0,0,0-.563.085,3.105,3.105,0,0,0-1.736,2.209,17.549,17.549,0,0,0-.335,5q.171,2.677.562,5.057a39.841,39.841,0,0,0,.584,4.342c.272,1.479.57,2.946.9,4.412-.16,1.5-.328,3-.487,4.5s-.378,2.961-.66,4.386q-.434,2.62-1.047,5.125a24.879,24.879,0,0,1-1.709,4.852c-.321.608-.684,1.237-1.093,1.875a1.649,1.649,0,0,1-1.517.9,2.026,2.026,0,0,1-1.831-.948,14.148,14.148,0,0,1-1.032-1.807,22.114,22.114,0,0,1-1.4-5.125c-.282-1.837-.479-3.62-.576-5.359a74.218,74.218,0,0,1,.166-10.241,69.838,69.838,0,0,1,1.557-10.022,37.055,37.055,0,0,1,1.3-4.5A17.554,17.554,0,0,1,366.3,758.9a7.509,7.509,0,0,1,2.592-2.3,32.6,32.6,0,0,1,3.291-1.411,4.013,4.013,0,0,0,.669-.274c.256-.122.356-.28.3-.47a7.64,7.64,0,0,0-1.013-.957,4.026,4.026,0,0,0-1.791-.578,11.274,11.274,0,0,0-1.766.04,8.159,8.159,0,0,0-3.886,1.663,11.292,11.292,0,0,0-2.848,3.233,24.77,24.77,0,0,0-3.484,9.247,85.62,85.62,0,0,0-1.059,9.961,83.863,83.863,0,0,0,.411,10.7,37.122,37.122,0,0,0,2.538,10.4,17.156,17.156,0,0,0,1.549,3.059,5.072,5.072,0,0,0,2.606,2.127,3.32,3.32,0,0,0,2.824.046,6.37,6.37,0,0,0,2.288-1.823,19.074,19.074,0,0,0,3.242-7c.657-2.679,1.225-5.283,1.679-7.8a.457.457,0,0,1,.054-.326,26.651,26.651,0,0,0,2.307,4.943,22.324,22.324,0,0,0,2.589,3.848,7.313,7.313,0,0,0,3.84,2.557,4.221,4.221,0,0,0,3.98-.834,9.551,9.551,0,0,0,2.643-3.4,20.636,20.636,0,0,0,1.366-3.6,41.4,41.4,0,0,0,2.013-12.534,11.112,11.112,0,0,0,2.877-1.3S397.853,775.19,397.711,774.948Zm-12.322-2.658c-1.741-4.152,1.935-5.6,4.538-1.935.935,1.313,1.217,3.728,1.149,6.415A7.726,7.726,0,0,1,385.389,772.289Z" transform="translate(-234.593 -657.443)" fill="#a12054"/>
    </g>
  </g>
</svg>
